<svg width="100" height="100" viewBox="0 0 100 100" fill="none" xmlns="http://www.w3.org/2000/svg" onClick="toggleClick()">
<circle cx="50" cy="50" r="50" fill="#354065"/>
<path d="M100 50C100 63.2608 94.7322 75.9785 85.3553 85.3553C75.9785 94.7322 63.2608 100 50 100C36.7392 100 24.0215 94.7322 14.6447 85.3553C5.26785 75.9785 2.00233e-06 63.2608 0 50L50 50H100Z" fill="#D95734"/>
<path d="M98 59C98 52.0399 96.7584 45.148 94.3462 38.7178C91.934 32.2875 88.3983 26.4448 83.9411 21.5233C79.4839 16.6018 74.1924 12.6979 68.3688 10.0344C62.5452 7.37088 56.3034 6 50 6C43.6965 6 37.4548 7.37089 31.6312 10.0344C25.8076 12.6979 20.5161 16.6018 16.0589 21.5233C11.6017 26.4448 8.06601 32.2875 5.65378 38.7178C3.24156 45.148 2 52.0399 2 59L50 59H98Z" fill="#354065"/>
<path d="M50 67C57.9565 67 65.5871 63.8393 71.2132 58.2132C76.8393 52.5871 80 44.9565 80 37C80 29.0435 76.8393 21.4129 71.2132 15.7868C65.5871 10.1607 57.9565 7 50 7L50 37L50 67Z" fill="#DDCB93"/>
<path d="M50 67C54.7739 67 59.3523 63.8393 62.7279 58.2132C66.1036 52.5871 68 44.9565 68 37C68 29.0435 66.1036 21.4129 62.7279 15.7868C59.3523 10.1607 54.7739 7.00001 50 7L50 37L50 67Z" fill="#465484"/>
<path d="M50 7C42.0435 7 34.4129 10.1607 28.7868 15.7868C23.1607 21.4129 20 29.0435 20 37C20 44.9565 23.1607 52.5871 28.7868 58.2132C34.4129 63.8393 42.0435 67 50 67L50 37V7Z" fill="#465484"/>
<rect x="25" y="59" width="54" height="8" fill="#D95734"/>
<line x1="7" y1="68.5" x2="72" y2="68.5" stroke="#465484" stroke-width="3"/>
<path d="M72 70C72.197 70 72.392 69.9612 72.574 69.8858C72.756 69.8104 72.9214 69.6999 73.0607 69.5607C73.1999 69.4214 73.3104 69.256 73.3858 69.074C73.4612 68.892 73.5 68.697 73.5 68.5C73.5 68.303 73.4612 68.108 73.3858 67.926C73.3104 67.744 73.1999 67.5786 73.0607 67.4393C72.9214 67.3001 72.756 67.1896 72.574 67.1142C72.392 67.0388 72.197 67 72 67L72 68.5L72 70Z" fill="#465484"/>
<line x1="30" y1="75.5" x2="66" y2="75.5" stroke="#465484" stroke-width="3"/>
<path d="M66 77C66.1313 77 66.2614 76.9612 66.3827 76.8858C66.504 76.8104 66.6142 76.6999 66.7071 76.5607C66.8 76.4214 66.8736 76.256 66.9239 76.074C66.9741 75.892 67 75.697 67 75.5C67 75.303 66.9741 75.108 66.9239 74.926C66.8736 74.744 66.8 74.5786 66.7071 74.4393C66.6142 74.3001 66.504 74.1896 66.3827 74.1142C66.2614 74.0388 66.1313 74 66 74L66 75.5L66 77Z" fill="#465484"/>
<path d="M30 74C29.8687 74 29.7386 74.0388 29.6173 74.1142C29.496 74.1896 29.3858 74.3001 29.2929 74.4393C29.2 74.5786 29.1264 74.744 29.0761 74.926C29.0259 75.108 29 75.303 29 75.5C29 75.697 29.0259 75.892 29.0761 76.074C29.1264 76.256 29.2 76.4214 29.2929 76.5607C29.3858 76.6999 29.496 76.8104 29.6173 76.8858C29.7386 76.9612 29.8687 77 30 77L30 75.5L30 74Z" fill="#465484"/>
<line x1="39" y1="82.5" x2="59" y2="82.5" stroke="#465484" stroke-width="3"/>
<path d="M59 84C59.1313 84 59.2614 83.9612 59.3827 83.8858C59.504 83.8104 59.6142 83.6999 59.7071 83.5607C59.8 83.4214 59.8736 83.256 59.9239 83.074C59.9741 82.892 60 82.697 60 82.5C60 82.303 59.9741 82.108 59.9239 81.926C59.8736 81.744 59.8 81.5786 59.7071 81.4393C59.6142 81.3001 59.504 81.1896 59.3827 81.1142C59.2614 81.0388 59.1313 81 59 81L59 82.5L59 84Z" fill="#465484"/>
<path d="M39 81C38.8687 81 38.7386 81.0388 38.6173 81.1142C38.496 81.1896 38.3858 81.3001 38.2929 81.4393C38.2 81.5786 38.1264 81.744 38.0761 81.926C38.0259 82.108 38 82.303 38 82.5C38 82.697 38.0259 82.892 38.0761 83.074C38.1264 83.256 38.2 83.4214 38.2929 83.5607C38.3858 83.6999 38.496 83.8104 38.6173 83.8858C38.7386 83.9612 38.8687 84 39 84L39 82.5L39 81Z" fill="#465484"/>
<circle id="c1" cx="50" cy="50" r="48" stroke="#FFC93D" stroke-width="4">
    <animate attributeName="stroke" from="#FFC93D" to="#354065" dur="3s" begin="indefinite" fill="freeze"/>
</circle>

<script>
    <!-- function toggleClick() {
        const circle = document.getElementById('c1');
        circle.beginElement();
    } -->
</script>
</svg>
